<?xml version="1.0" encoding="UTF-8" standalone="no"?>
<!-- Created with Inkscape (http://www.inkscape.org/) -->

<svg
   xmlns:dc="http://purl.org/dc/elements/1.1/"
   xmlns:cc="http://creativecommons.org/ns#"
   xmlns:rdf="http://www.w3.org/1999/02/22-rdf-syntax-ns#"
   xmlns:svg="http://www.w3.org/2000/svg"
   xmlns="http://www.w3.org/2000/svg"
   xmlns:sodipodi="http://sodipodi.sourceforge.net/DTD/sodipodi-0.dtd"
   xmlns:inkscape="http://www.inkscape.org/namespaces/inkscape"
   width="596.1084"
   height="334.05405"
   id="svg2"
   inkscape:version="0.48.0 r9654"
   inkscape:output_extension="org.inkscape.output.svg.inkscape"
   version="1.0"
   sodipodi:docname="Curtains.svg">
  <metadata
     id="metadata16">
    <rdf:RDF>
      <cc:Work
         rdf:about="">
        <dc:format>image/svg+xml</dc:format>
        <dc:type
           rdf:resource="http://purl.org/dc/dcmitype/StillImage" />
      </cc:Work>
    </rdf:RDF>
  </metadata>
  <sodipodi:namedview
     pagecolor="#ffffff"
     bordercolor="#666666"
     borderopacity="1"
     objecttolerance="10"
     gridtolerance="10"
     guidetolerance="10"
     inkscape:pageopacity="0"
     inkscape:pageshadow="2"
     inkscape:window-width="1551"
     inkscape:window-height="1127"
     id="namedview14"
     showgrid="false"
     inkscape:zoom="1.7226325"
     inkscape:cx="288.88625"
     inkscape:cy="170.39011"
     inkscape:window-x="249"
     inkscape:window-y="0"
     inkscape:window-maximized="0"
     inkscape:current-layer="g3149" />
  <defs
     id="defs4">
    <filter
       inkscape:label="curtain1"
       id="filter2442">
      <feTurbulence
         type="turbulence"
         result="result0"
         seed="5"
         numOctaves="1"
         baseFrequency="0.037373737373737378 0.0010101010101010103"
         id="feTurbulence2444" />
      <feComposite
         result="result1"
         operator="over"
         in2="result0"
         id="feComposite2446" />
      <feMerge
         result="result2"
         id="feMerge2448">
        <feMergeNode
           in="result1"
           id="feMergeNode2450"
           inkscape:collect="always" />
        <feMergeNode
           in="result0"
           id="feMergeNode2452"
           inkscape:collect="always" />
      </feMerge>
      <feComposite
         result="result4"
         in="SourceGraphic"
         operator="in"
         in2="result2"
         id="feComposite2454" />
    </filter>
  </defs>
  <g
     inkscape:label="Ebene 1"
     inkscape:groupmode="layer"
     id="layer1"
     transform="translate(4556.1855,1171.4372)">
    <g
       id="g3055"
       transform="matrix(0.45247006,0,0,1,-2493.2063,0)">
      <path
         sodipodi:nodetypes="cccccc"
         inkscape:connector-curvature="0"
         id="path2993"
         d="m -4483.9473,-1158.5742 -62.2382,0 0,311.19105 73.6697,0 c -11.0119,-77.51836 11.0614,-158.04455 -34.2945,-232.44065 22.5614,-13.7998 19.2471,-49.1627 22.863,-78.7504 z"
         style="fill:#320013;fill-opacity:1;stroke:none" />
      <path
         style="fill:#ff1313;fill-opacity:1;stroke:none;filter:url(#filter2442)"
         d="m -4483.9473,-1158.5741 -62.2382,0 0,311.19095 73.6697,0 c -11.0119,-77.51836 11.0614,-158.04455 -34.2945,-232.44055 22.5614,-13.7998 19.2471,-49.1627 22.863,-78.7504 z"
         id="path3803"
         inkscape:connector-curvature="0"
         sodipodi:nodetypes="cccccc" />
    </g>
    <g
       transform="matrix(-0.45247006,0,0,1,-6035.7687,0)"
       id="g3091">
      <path
         style="fill:#320013;fill-opacity:1;stroke:none"
         d="m -4483.9473,-1158.5742 -62.2382,0 0,311.19105 73.6697,0 c -11.0119,-77.51836 11.0614,-158.04455 -34.2945,-232.44065 22.5614,-13.7998 19.2471,-49.1627 22.863,-78.7504 z"
         id="path3093"
         inkscape:connector-curvature="0"
         sodipodi:nodetypes="cccccc" />
      <path
         sodipodi:nodetypes="cccccc"
         inkscape:connector-curvature="0"
         id="path3095"
         d="m -4483.9473,-1158.5741 -62.2382,0 0,311.19095 73.6697,0 c -11.0119,-77.51836 11.0614,-158.04455 -34.2945,-232.44055 22.5614,-13.7998 19.2471,-49.1627 22.863,-78.7504 z"
         style="fill:#ff1313;fill-opacity:1;stroke:none;filter:url(#filter2442)" />
    </g>
    <g
       transform="matrix(0.45247006,0,0,1,-2334.7279,0)"
       id="g3149">
      <path
         style="fill:#320013;fill-opacity:1;stroke:none"
         d="m -3744.9548,-1158.5741 -993.6766,0 0,51.1239 c 70.9168,18.5812 210.5674,1.4137 207.4051,2.1291 65.368,13.4626 123.506,5.6592 182.264,-0.3204 72.6178,11.8018 140.7697,9.4591 206.5601,-0.3632 67.3232,9.9898 134.6464,11.3075 201.9696,-0.3551 47.4207,8.9697 142.4201,16.5209 195.713,-0.8719 z"
         id="path3933"
         inkscape:connector-curvature="0"
         sodipodi:nodetypes="ccccccccc" />
      <path
         sodipodi:nodetypes="ccccccccc"
         inkscape:connector-curvature="0"
         id="path3153"
         d="m -3744.9548,-1158.5741 -993.6766,0 0,51.1239 c 70.9168,18.5812 210.5674,1.4137 207.4051,2.1291 65.368,13.4626 123.506,5.6592 182.264,-0.3204 72.6178,11.8018 140.7697,9.4591 206.5601,-0.3632 67.3232,9.9898 134.6464,11.3075 201.9696,-0.3551 47.4207,8.9697 142.4201,16.5209 195.713,-0.8719 z"
         style="fill:#ff1313;fill-opacity:1;stroke:none;filter:url(#filter2442)" />
    </g>
  </g>
</svg>
